<?xml version="1.0" standalone="no"?><!DOCTYPE svg PUBLIC "-//W3C//DTD SVG 1.1//EN" "http://www.w3.org/Graphics/SVG/1.1/DTD/svg11.dtd"><svg class="icon" height="512" viewBox="0 0 1024 1024" version="1.1" xmlns="http://www.w3.org/2000/svg"><path d="M760.7296 365.6704a231.5264 231.5264 0 1 0-368.64 185.6512 377.9584 377.9584 0 0 0-235.52 296.96 35.84 35.84 0 0 0 30.72 40.96 36.352 36.352 0 0 0 5.12 0 35.84 35.84 0 0 0 35.4304-30.72 306.3808 306.3808 0 0 1 301.6704-261.7344h1.8432a231.424 231.424 0 0 0 229.376-231.1168z m-231.424-159.232a159.232 159.232 0 1 1-159.8464 159.232 159.744 159.744 0 0 1 159.8464-159.232zM832.4096 701.3376h-83.3536v-83.456a34.304 34.304 0 1 0-68.7104 0v83.456h-83.456a34.304 34.304 0 0 0 0 68.7104h83.456v83.456a34.304 34.304 0 1 0 68.7104 0V770.048h83.456a34.304 34.304 0 0 0 0-68.7104z" /></svg>