<?xml version="1.0" standalone="no"?><!DOCTYPE svg PUBLIC "-//W3C//DTD SVG 1.1//EN" "http://www.w3.org/Graphics/SVG/1.1/DTD/svg11.dtd"><svg class="icon" height="512" viewBox="0 0 1024 1024" version="1.1" xmlns="http://www.w3.org/2000/svg"><path d="M907.101593 250.757091c-26.304086-26.317389-58.832943-46.180785-94.013187-57.465806-14.640442-4.722558-30.200836 3.368724-34.855856 17.928325-4.681626 14.572904 3.355421 30.17423 17.915022 34.842553 27.224038 8.727779 51.363831 23.489994 71.768557 43.880393 33.827433 33.827433 52.473095 78.803787 52.473095 126.649492s-18.645662 92.822059-52.473095 126.649492c-33.827433 33.827433-78.803787 52.459792-126.649492 52.459792-26.708292 0-52.520167-5.811356-75.999928-16.826224l96.810906-96.806813c5.710049-5.696746 8.632611-13.598716 8.037047-21.635763L752.064564 217.322607c-4.329609-30.039153-28.333302-54.015218-60.21236-58.507532l-241.202481-17.874089c-8.253988-0.595564-15.939017 2.326998-21.649066 8.037047L64.963571 513.014096c-34.801621 34.801621-34.814923 91.441619 0 126.270868l206.833719 206.792786c16.832364 16.886599 39.266305 26.169009 63.134923 26.169009 23.842011 0 46.275953-9.282411 63.108317-26.155706l226.179322-226.170113c35.217083 20.349467 75.305103 31.203676 117.046786 31.203676 62.647829 0 121.561613-24.396643 165.834956-68.696592 44.299949-44.286646 68.709895-103.187127 68.709895-165.834956S951.402565 295.043736 907.101593 250.757091zM358.855064 806.918893c-12.827143 12.800537-35.071773 12.772908-47.872311-0.013303l-206.820416-206.807113c-13.205766-13.205766-13.205766-34.69315-0.013303-47.89994l355.051435-355.051435 226.670509 16.723893c5.818519 0.839111 10.472516 5.507434 11.122315 9.444093l16.913205 228.53702-95.269807 95.2739c-1.354857-1.27504-2.698458-2.564405-4.02057-3.885494-17.104563-17.110703-30.311353-37.177737-39.20286-58.950623 9.967002-5.107321 19.315928-11.82021 27.647687-20.150946 43.027979-43.042305 43.027979-113.091708 0-156.13299-43.027979-43.055608-113.118314-43.027979-156.147316 0-43.027979 43.042305-43.027979 113.091708 0 156.13299 20.409842 20.423145 46.909379 31.145347 73.721025 32.19219 11.542894 31.948643 30.066783 61.372789 54.794977 86.094844 1.320065 1.320065 2.65548 2.620687 4.002151 3.904936L358.855064 806.918893zM562.427506 426.330852c-0.471744-8.809643-0.314155-17.709337 0.529049-26.63973 1.461281-15.236006-9.741875-28.752858-24.977881-30.200836-14.857383-1.420349-28.739555 9.756201-30.17423 24.977881-1.39579 14.712073-1.388627 29.361725-0.068562 43.789319-7.915273-2.600221-15.355733-7.024997-21.63474-13.304004-21.433148-21.446451-21.433148-56.328913 0-77.762061 21.433148-21.433148 56.343239-21.433148 77.775364 0 21.433148 21.433148 21.433148 56.328913 0 77.762061C563.402717 425.428296 562.9146 425.87855 562.427506 426.330852z" /></svg>